solid ascii
  facet normal 0.000000e+000 1.000000e+000 -0.000000e+000
    outer loop
      vertex   3.366025e+001 4.500000e+001 0.000000e+000
      vertex   1.633975e+001 4.500000e+001 0.000000e+000
      vertex   3.366025e+001 4.500000e+001 2.000000e+001
    endloop
  endfacet
  facet normal 0.000000e+000 1.000000e+000 -0.000000e+000
    outer loop
      vertex   3.366025e+001 4.500000e+001 2.000000e+001
      vertex   1.633975e+001 4.500000e+001 0.000000e+000
      vertex   1.633975e+001 4.500000e+001 2.000000e+001
    endloop
  endfacet
  facet normal 8.660254e-001 -5.000000e-001 0.000000e+000
    outer loop
      vertex   2.500000e+001 3.000000e+001 0.000000e+000
      vertex   3.366025e+001 4.500000e+001 0.000000e+000
      vertex   2.500000e+001 3.000000e+001 2.000000e+001
    endloop
  endfacet
  facet normal 8.660254e-001 -5.000000e-001 0.000000e+000
    outer loop
      vertex   2.500000e+001 3.000000e+001 2.000000e+001
      vertex   3.366025e+001 4.500000e+001 0.000000e+000
      vertex   3.366025e+001 4.500000e+001 2.000000e+001
    endloop
  endfacet
  facet normal -8.660254e-001 -5.000000e-001 0.000000e+000
    outer loop
      vertex   1.633975e+001 4.500000e+001 0.000000e+000
      vertex   2.500000e+001 3.000000e+001 0.000000e+000
      vertex   1.633975e+001 4.500000e+001 2.000000e+001
    endloop
  endfacet
  facet normal -8.660254e-001 -5.000000e-001 0.000000e+000
    outer loop
      vertex   1.633975e+001 4.500000e+001 2.000000e+001
      vertex   2.500000e+001 3.000000e+001 0.000000e+000
      vertex   2.500000e+001 3.000000e+001 2.000000e+001
    endloop
  endfacet
  facet normal -0.000000e+000 0.000000e+000 1.000000e+000
    outer loop
      vertex   1.633975e+001 4.500000e+001 2.000000e+001
      vertex   2.500000e+001 3.000000e+001 2.000000e+001
      vertex   3.366025e+001 4.500000e+001 2.000000e+001
    endloop
  endfacet
  facet normal 0.000000e+000 0.000000e+000 -1.000000e+000
    outer loop
      vertex   2.500000e+001 3.000000e+001 0.000000e+000
      vertex   1.633975e+001 4.500000e+001 0.000000e+000
      vertex   3.366025e+001 4.500000e+001 0.000000e+000
    endloop
  endfacet
endsolid
